<svg xmlns="http://www.w3.org/2000/svg" viewBox="0 0 128 128">
  <defs>
    <linearGradient id="g" x1="0%" x2="100%" y1="0%" y2="100%">
      <stop offset="0%" stop-color="#0d7c86" />
      <stop offset="100%" stop-color="#f26a4b" />
    </linearGradient>
  </defs>
  <rect width="128" height="128" rx="28" fill="#fff8ef" />
  <path
    d="M28 44c0-8.84 7.16-16 16-16h40c8.84 0 16 7.16 16 16v10c0 8.84-7.16 16-16 16H69l-17 18v-18H44c-8.84 0-16-7.16-16-16V44Z"
    fill="url(#g)"
  />
  <circle cx="49" cy="50" r="5" fill="#fff8ef" />
  <circle cx="64" cy="50" r="5" fill="#fff8ef" />
  <circle cx="79" cy="50" r="5" fill="#fff8ef" />
  <path
    d="M92 84c0 8.84-7.16 16-16 16H44c-8.84 0-16-7.16-16-16"
    fill="none"
    stroke="#182332"
    stroke-linecap="round"
    stroke-width="10"
  />
</svg>
