<svg xmlns="http://www.w3.org/2000/svg" width="1024" height="500" viewBox="0 0 1024 500">
  <defs>
    <linearGradient id="bg" x1="0" x2="1" y1="0" y2="1">
      <stop offset="0" stop-color="#fff8ef"/>
      <stop offset="0.58" stop-color="#f7efe4"/>
      <stop offset="1" stop-color="#e8f5f4"/>
    </linearGradient>
    <linearGradient id="primary" x1="0" x2="1" y1="0" y2="1">
      <stop offset="0" stop-color="#0d7c86"/>
      <stop offset="1" stop-color="#17a1a5"/>
    </linearGradient>
    <linearGradient id="accent" x1="0" x2="1" y1="0" y2="1">
      <stop offset="0" stop-color="#f26a4b"/>
      <stop offset="1" stop-color="#ffb36f"/>
    </linearGradient>
    <filter id="shadow" x="-20%" y="-20%" width="140%" height="140%">
      <feDropShadow dx="0" dy="18" stdDeviation="22" flood-color="#182332" flood-opacity="0.18"/>
    </filter>
  </defs>

  <rect width="1024" height="500" fill="url(#bg)"/>
  <circle cx="90" cy="80" r="110" fill="#f26a4b" opacity="0.13"/>
  <circle cx="895" cy="85" r="130" fill="#0d7c86" opacity="0.14"/>
  <circle cx="830" cy="430" r="170" fill="#ffffff" opacity="0.55"/>

  <g transform="translate(82 82)">
    <rect x="0" y="0" width="116" height="116" rx="26" fill="#fffdf9"/>
    <path d="M25 39c0-8 6-14 14-14h38c8 0 14 6 14 14v10c0 8-6 14-14 14H64L48 80V63h-9c-8 0-14-6-14-14V39Z" fill="url(#primary)"/>
    <circle cx="45" cy="47" r="5" fill="#fff8ef"/>
    <circle cx="58" cy="47" r="5" fill="#fff8ef"/>
    <circle cx="71" cy="47" r="5" fill="#fff8ef"/>
    <path d="M88 80c0 7-6 13-13 13H41c-7 0-13-6-13-13" fill="none" stroke="#182332" stroke-linecap="round" stroke-width="8"/>
  </g>

  <g transform="translate(82 222)">
    <text x="0" y="0" fill="#182332" font-family="Avenir Next, Trebuchet MS, Arial, sans-serif" font-size="66" font-weight="800">Último</text>
    <text x="0" y="72" fill="#182332" font-family="Avenir Next, Trebuchet MS, Arial, sans-serif" font-size="66" font-weight="800">Sobrevivente</text>
    <text x="0" y="132" fill="#5f6875" font-family="Avenir Next, Trebuchet MS, Arial, sans-serif" font-size="28" font-weight="600">Jogo de perguntas em grupo</text>
    <text x="0" y="176" fill="#0d7c86" font-family="Avenir Next, Trebuchet MS, Arial, sans-serif" font-size="30" font-weight="800">Errou, saiu. Quem fica até o fim vence.</text>
  </g>

  <g transform="translate(682 48)" filter="url(#shadow)">
    <rect x="0" y="0" width="236" height="410" rx="42" fill="#182332"/>
    <rect x="20" y="24" width="196" height="362" rx="30" fill="#fffdf9"/>
    <rect x="86" y="13" width="64" height="8" rx="4" fill="#eef2f2" opacity="0.55"/>
    <rect x="42" y="54" width="102" height="30" rx="15" fill="#e7f5f3"/>
    <text x="58" y="75" fill="#0d7c86" font-family="Avenir Next, Trebuchet MS, Arial, sans-serif" font-size="14" font-weight="800">PERGUNTA</text>
    <text x="42" y="128" fill="#182332" font-family="Avenir Next, Trebuchet MS, Arial, sans-serif" font-size="34" font-weight="800">Ana</text>
    <text x="42" y="172" fill="#182332" font-family="Avenir Next, Trebuchet MS, Arial, sans-serif" font-size="21" font-weight="600">Quem foi o primeiro</text>
    <text x="42" y="202" fill="#182332" font-family="Avenir Next, Trebuchet MS, Arial, sans-serif" font-size="21" font-weight="600">imperador do Brasil?</text>
    <rect x="42" y="238" width="74" height="34" rx="17" fill="#ffe3da"/>
    <text x="55" y="262" fill="#8a2d16" font-family="Avenir Next, Trebuchet MS, Arial, sans-serif" font-size="16" font-weight="800">História</text>
    <rect x="126" y="238" width="58" height="34" rx="17" fill="#e7f5f3"/>
    <text x="141" y="262" fill="#07545b" font-family="Avenir Next, Trebuchet MS, Arial, sans-serif" font-size="16" font-weight="800">Fácil</text>
    <rect x="42" y="306" width="152" height="48" rx="16" fill="url(#primary)"/>
    <text x="70" y="337" fill="#ffffff" font-family="Avenir Next, Trebuchet MS, Arial, sans-serif" font-size="18" font-weight="800">Mostrar resposta</text>
  </g>

  <path d="M624 122c28 14 49 33 62 57" fill="none" stroke="#f26a4b" stroke-width="8" stroke-linecap="round" opacity="0.85"/>
  <path d="M926 302c-23 18-49 30-78 36" fill="none" stroke="#0d7c86" stroke-width="8" stroke-linecap="round" opacity="0.85"/>
</svg>
